<svg width="32" height="32" viewBox="0 0 32 32" xmlns="http://www.w3.org/2000/svg">
  <defs>
    <linearGradient id="gradient" x1="0%" y1="0%" x2="100%" y2="100%">
      <stop offset="0%" style="stop-color:#a855f7;stop-opacity:1" />
      <stop offset="100%" style="stop-color:#ec4899;stop-opacity:1" />
    </linearGradient>
  </defs>
  <rect width="32" height="32" rx="8" fill="url(#gradient)"/>
  <path d="m16 4-2.549 7.751a2.667 2.667 0 0 1-1.7 1.7L4 16l7.751 2.549a2.667 2.667 0 0 1 1.7 1.7L16 28l2.549-7.751a2.667 2.667 0 0 1 1.7-1.7L28 16l-7.751-2.549a2.667 2.667 0 0 1-1.7-1.7L16 4Z" fill="white"/>
  <path d="M7 4v5.333M25 22.667V28M4 7h5.333M22.667 25H28" stroke="white" stroke-width="1.5" stroke-linecap="round"/>
</svg>